<?xml version="1.0" encoding="utf-8"?>
<svg xmlns="http://www.w3.org/2000/svg"
	xmlns:xlink="http://www.w3.org/1999/xlink"
	width="13px" height="16px" viewBox="0 0 13 16">
<path fillRule="evenodd" d="M 12.22 13.99C 12.4 14.43 12.35 14.94 12.07 15.35 11.8 15.76 11.34 16 10.84 16 10.84 16 2.12 16 2.12 16 1.63 16 1.17 15.76 0.89 15.35 0.62 14.94 0.57 14.43 0.75 13.97 0.75 13.97 3.81 5.7 3.81 5.7 3.81 5.7 3.81 3.26 3.81 3.26 3.23 3.06 2.82 2.51 2.82 1.87 2.82 1.87 2.82 1.47 2.82 1.47 2.82 0.66 3.48 0 4.3 0 4.3 0 8.67 0 8.67 0 9.49 0 10.15 0.66 10.15 1.47 10.15 1.47 10.15 1.87 10.15 1.87 10.15 2.51 9.73 3.06 9.15 3.26 9.15 3.26 9.15 5.7 9.15 5.7 9.15 5.7 12.22 13.99 12.22 13.99ZM 7.36 14.28C 7.84 14.28 8.23 13.89 8.23 13.41 8.23 12.93 7.84 12.55 7.36 12.55 6.88 12.55 6.49 12.93 6.49 13.41 6.49 13.89 6.88 14.28 7.36 14.28ZM 7.87 10.65C 7.87 10.3 7.59 10.02 7.25 10.02 6.9 10.02 6.62 10.3 6.62 10.65 6.62 10.99 6.9 11.27 7.25 11.27 7.59 11.27 7.87 10.99 7.87 10.65ZM 4.61 12.61C 4.89 12.61 5.12 12.39 5.12 12.11 5.12 11.83 4.89 11.61 4.61 11.61 4.33 11.61 4.11 11.83 4.11 12.11 4.11 12.39 4.33 12.61 4.61 12.61ZM 9.17 1.87C 9.17 1.87 9.17 1.47 9.17 1.47 9.17 1.2 8.95 0.97 8.67 0.97 8.67 0.97 4.3 0.97 4.3 0.97 4.02 0.97 3.79 1.2 3.79 1.47 3.79 1.47 3.79 1.87 3.79 1.87 3.79 2.14 4.02 2.37 4.3 2.37 4.3 2.37 4.78 2.37 4.78 2.37 4.78 2.37 4.79 2.85 4.79 2.85 4.79 2.85 4.79 5.87 4.79 5.87 4.79 5.87 3.65 8.96 3.65 8.96 3.65 8.96 3.69 8.96 3.69 8.96 3.69 8.96 8.36 8.88 9 8.22 9.01 8.21 9.02 8.2 9.03 8.19 9.03 8.19 8.18 5.87 8.18 5.87 8.18 5.87 8.18 2.37 8.18 2.37 8.18 2.37 8.67 2.37 8.67 2.37 8.95 2.37 9.17 2.14 9.17 1.87ZM 6.14 7.74C 5.77 7.74 5.46 7.44 5.46 7.07 5.46 6.69 5.77 6.39 6.14 6.39 6.52 6.39 6.82 6.69 6.82 7.07 6.82 7.44 6.52 7.74 6.14 7.74Z" fill="rgb(255,255,255)"/></svg>