<?xml version="1.0" encoding="utf-8"?>
<svg xmlns="http://www.w3.org/2000/svg"
	xmlns:xlink="http://www.w3.org/1999/xlink"
	width="16px" height="17px" viewBox="0 0 16 17">
<path fillRule="evenodd" d="M 16 15.24C 16 15.88 15.39 16.03 13.3 16.17 11.88 16.27 10 16.33 8 16.33 6 16.33 4.12 16.27 2.7 16.17 0.61 16.03-0 15.88-0 15.24-0 14.59 0.61 14.45 2.7 14.3 3.3 14.26 3.99 14.23 4.73 14.2 3.24 12.91 2.27 10.77 2.27 8.35 2.27 8.04 2.52 7.79 2.83 7.79 2.83 7.79 13.17 7.79 13.17 7.79 13.48 7.79 13.73 8.04 13.73 8.35 13.73 8.65 13.71 8.95 13.68 9.24 14.34 9.07 15.06 9.34 15.44 9.96 15.66 10.33 15.73 10.76 15.63 11.19 15.53 11.61 15.27 11.96 14.9 12.19 14.65 12.35 14.36 12.43 14.07 12.43 13.94 12.43 13.82 12.41 13.69 12.38 13.4 12.31 13.14 12.16 12.94 11.95 12.52 12.84 11.94 13.61 11.27 14.2 12.01 14.23 12.7 14.26 13.3 14.3 15.39 14.45 16 14.59 16 15.24ZM 13.27 11.29C 13.4 11.51 13.6 11.66 13.85 11.72 14.09 11.78 14.34 11.74 14.55 11.61 14.77 11.48 14.92 11.27 14.98 11.03 15.03 10.78 15 10.53 14.87 10.31 14.6 9.87 14.02 9.72 13.58 10 13.58 10 13.57 10 13.57 10 13.49 10.43 13.37 10.85 13.23 11.25 13.24 11.27 13.26 11.28 13.27 11.29ZM 12.59 8.92C 12.59 8.92 3.41 8.92 3.41 8.92 3.63 11.96 5.6 14.35 8 14.35 10.4 14.35 12.37 11.96 12.59 8.92ZM 9.78 6.15C 9.82 6.29 9.8 6.44 9.71 6.56 9.63 6.66 9.51 6.72 9.38 6.72 9.38 6.72 9.35 6.72 9.35 6.72 9.11 6.7 8.8 6.56 8.64 6.23 8.45 5.82 8.57 5.28 9.03 4.57 9.05 4.53 9.08 4.49 9.1 4.45 9.1 4.45 9.13 4.4 9.13 4.4 9.48 3.81 9.42 3.6 9.41 3.58 9.41 3.58 9.43 3.59 9.46 3.59 9.35 3.56 9.26 3.49 9.21 3.39 9.15 3.29 9.14 3.17 9.17 3.06 9.24 2.85 9.48 2.71 9.7 2.78 9.76 2.79 10.06 2.9 10.2 3.28 10.35 3.69 10.23 4.21 9.84 4.86 9.53 5.43 9.77 6.14 9.78 6.15ZM 7.42 6.03C 7.48 6.18 7.45 6.34 7.36 6.46 7.27 6.57 7.14 6.64 7 6.64 7 6.64 6.96 6.64 6.96 6.64 6.72 6.61 6.24 6.45 6.02 5.98 5.74 5.4 5.94 4.56 6.63 3.51 6.68 3.43 6.73 3.35 6.77 3.27 6.77 3.27 6.79 3.24 6.79 3.24 7.38 2.25 7.33 1.81 7.28 1.67 7.24 1.58 7.18 1.55 7.18 1.55 6.96 1.48 6.83 1.23 6.9 0.99 6.96 0.75 7.22 0.62 7.45 0.69 7.5 0.7 7.93 0.84 8.12 1.36 8.33 1.94 8.14 2.74 7.55 3.73 6.99 4.77 7.42 6.02 7.42 6.03Z" fill="rgb(255,255,255)"/></svg>