<svg xmlns="http://www.w3.org/2000/svg" width="16" height="16" viewBox="0 0 16 16"><path d="M14.66 4H8.99l2.24-2.69c.03.01.06.02.1.02.37 0 .67-.3.67-.66 0-.37-.3-.67-.67-.67-.37 0-.67.3-.67.67 0 .08.02.15.05.22L8.12 4h-.24L5.29.89c.02-.07.04-.14.04-.22 0-.37-.3-.67-.67-.67C4.3 0 4 .3 4 .67c0 .36.3.66.66.66.04 0 .07-.01.11-.02L7.01 4H1.33C.6 4 0 4.6 0 5.33v9.34C0 15.41.6 16 1.33 16h13.33c.74 0 1.34-.59 1.34-1.33V5.33C16 4.6 15.4 4 14.66 4zM12 13.34c0 .73-.6 1.33-1.34 1.33H2.67c-.74 0-1.34-.6-1.34-1.33V6.67c0-.74.6-1.34 1.34-1.34h7.99c.74 0 1.34.6 1.34 1.34v6.67zm1.96-5.96c-.53 0-.95-.43-.95-.96 0-.52.42-.95.95-.95s.95.43.95.95c0 .53-.42.96-.95.96z" fill="#FFF"/></svg>