<svg xmlns="http://www.w3.org/2000/svg" width="17" height="16" viewBox="0 0 17 16"><path d="M13.58 12.6c-.01.04-.04.08-.08.1-.02.01-.05.02-.08.02h-.04l-5.83-1.76c-.05-.02-.09-.06-.1-.11-.02-.05-.01-.11.03-.15l5.79-6.8-7.54 6.39c-.05.04-.11.05-.16.04L.61 8.76C.55 8.74.5 8.69.5 8.62c-.01-.06.03-.12.08-.15L16.26.52c.06-.03.13-.03.18.01.04.04.07.11.05.17l-2.91 11.9zm-5.93-.4l1.61.49c.05.02.08.05.1.1.02.05.01.1-.01.14l-1.61 2.52c-.03.05-.09.08-.14.08-.01 0-.03 0-.04-.01-.07-.02-.12-.08-.12-.15v-3.01c0-.05.02-.1.06-.13.05-.03.1-.04.15-.03z" fill="#FFF"/></svg>