<svg xmlns="http://www.w3.org/2000/svg" width="13" height="16" viewBox="0 0 13 16"><path d="M12.22 13.99c.18.44.13.95-.15 1.36-.27.41-.73.65-1.23.65H2.12c-.49 0-.95-.24-1.23-.65-.27-.41-.32-.92-.14-1.38L3.81 5.7V3.26c-.58-.2-.99-.75-.99-1.39v-.4C2.82.66 3.48 0 4.3 0h4.37c.82 0 1.48.66 1.48 1.47v.4c0 .64-.42 1.19-1 1.39V5.7l3.07 8.29zm-4.86.29c.48 0 .87-.39.87-.87s-.39-.86-.87-.86-.87.38-.87.86.39.87.87.87zm.51-3.63c0-.35-.28-.63-.62-.63-.35 0-.63.28-.63.63 0 .34.28.62.63.62.34 0 .62-.28.62-.62zm-3.26 1.96c.28 0 .51-.22.51-.5s-.23-.5-.51-.5-.5.22-.5.5.22.5.5.5zM9.17 1.87v-.4c0-.27-.22-.5-.5-.5H4.3c-.28 0-.51.23-.51.5v.4c0 .27.23.5.51.5h.48l.01.48v3.02L3.65 8.96h.04S8.36 8.88 9 8.22l.03-.03-.85-2.32v-3.5h.49c.28 0 .5-.23.5-.5zM6.14 7.74c-.37 0-.68-.3-.68-.67 0-.38.31-.68.68-.68.38 0 .68.3.68.68 0 .37-.3.67-.68.67z" fill="#FFF"/></svg>