<svg xmlns="http://www.w3.org/2000/svg" width="16" height="17" viewBox="0 0 16 17"><path d="M16 15.24c0 .64-.61.79-2.7.93-1.42.1-3.3.16-5.3.16s-3.88-.06-5.3-.16c-2.09-.14-2.7-.29-2.7-.93 0-.65.61-.79 2.7-.94.6-.04 1.29-.07 2.03-.1-1.49-1.29-2.46-3.43-2.46-5.85 0-.31.25-.56.56-.56h10.34c.31 0 .56.25.56.56 0 .3-.02.6-.05.89.66-.17 1.38.1 1.76.72.22.37.29.8.19 1.23-.1.42-.36.77-.73 1-.25.16-.54.24-.83.24-.13 0-.25-.02-.38-.05-.29-.07-.55-.22-.75-.43-.42.89-1 1.66-1.67 2.25.74.03 1.43.06 2.03.1 2.09.15 2.7.29 2.7.94zm-2.73-3.95c.13.22.33.37.58.43.24.06.49.02.7-.11.22-.13.37-.34.43-.58.05-.25.02-.5-.11-.72-.27-.44-.85-.59-1.29-.31h-.01c-.08.43-.2.85-.34 1.25.01.02.03.03.04.04zm-.68-2.37H3.41c.22 3.04 2.19 5.43 4.59 5.43s4.37-2.39 4.59-5.43zM9.78 6.15c.04.14.02.29-.07.41-.08.1-.2.16-.33.16h-.03c-.24-.02-.55-.16-.71-.49-.19-.41-.07-.95.39-1.66.02-.04.05-.08.07-.12l.03-.05c.35-.59.29-.8.28-.82 0 0 .02.01.05.01-.11-.03-.2-.1-.25-.2-.06-.1-.07-.22-.04-.33.07-.21.31-.35.53-.28.06.01.36.12.5.5.15.41.03.93-.36 1.58-.31.57-.07 1.28-.06 1.29zm-2.36-.12c.06.15.03.31-.06.43-.09.11-.22.18-.36.18h-.04c-.24-.03-.72-.19-.94-.66-.28-.58-.08-1.42.61-2.47.05-.08.1-.16.14-.24l.02-.03c.59-.99.54-1.43.49-1.57-.04-.09-.1-.12-.1-.12-.22-.07-.35-.32-.28-.56.06-.24.32-.37.55-.3.05.01.48.15.67.67.21.58.02 1.38-.57 2.37-.56 1.04-.13 2.29-.13 2.3z" fill="#FFF"/></svg>