<?xml version="1.0" encoding="utf-8"?>
<svg xmlns="http://www.w3.org/2000/svg"
	xmlns:xlink="http://www.w3.org/1999/xlink"
	width="16px" height="16px" viewBox="0 0 16 16">
<path fillRule="evenodd" d="M 14.66 4C 14.66 4 8.99 4 8.99 4 8.99 4 11.23 1.31 11.23 1.31 11.26 1.32 11.29 1.33 11.33 1.33 11.7 1.33 12 1.03 12 0.67 12 0.3 11.7-0 11.33-0 10.96-0 10.66 0.3 10.66 0.67 10.66 0.75 10.68 0.82 10.71 0.89 10.71 0.89 8.12 4 8.12 4 8.12 4 7.88 4 7.88 4 7.88 4 5.29 0.89 5.29 0.89 5.31 0.82 5.33 0.75 5.33 0.67 5.33 0.3 5.03-0 4.66-0 4.3-0 4 0.3 4 0.67 4 1.03 4.3 1.33 4.66 1.33 4.7 1.33 4.73 1.32 4.77 1.31 4.77 1.31 7.01 4 7.01 4 7.01 4 1.33 4 1.33 4 0.6 4-0 4.6-0 5.33-0 5.33-0 14.67-0 14.67-0 15.41 0.6 16 1.33 16 1.33 16 14.66 16 14.66 16 15.4 16 16 15.41 16 14.67 16 14.67 16 5.33 16 5.33 16 4.6 15.4 4 14.66 4ZM 12 13.34C 12 14.07 11.4 14.67 10.66 14.67 10.66 14.67 2.67 14.67 2.67 14.67 1.93 14.67 1.33 14.07 1.33 13.34 1.33 13.34 1.33 6.67 1.33 6.67 1.33 5.93 1.93 5.33 2.67 5.33 2.67 5.33 10.66 5.33 10.66 5.33 11.4 5.33 12 5.93 12 6.67 12 6.67 12 13.34 12 13.34ZM 13.96 7.38C 13.43 7.38 13.01 6.95 13.01 6.42 13.01 5.9 13.43 5.47 13.96 5.47 14.49 5.47 14.91 5.9 14.91 6.42 14.91 6.95 14.49 7.38 13.96 7.38Z" fill="rgb(255,255,255)"/></svg>