<?xml version="1.0" encoding="utf-8"?>
<svg xmlns="http://www.w3.org/2000/svg"
	xmlns:xlink="http://www.w3.org/1999/xlink"
	width="17px" height="16px" viewBox="0 0 17 16">
<path fillRule="evenodd" d="M 13.58 12.6C 13.57 12.64 13.54 12.68 13.5 12.7 13.48 12.71 13.45 12.72 13.42 12.72 13.41 12.72 13.39 12.72 13.38 12.72 13.38 12.72 7.55 10.96 7.55 10.96 7.5 10.94 7.46 10.9 7.45 10.85 7.43 10.8 7.44 10.74 7.48 10.7 7.48 10.7 13.27 3.9 13.27 3.9 13.27 3.9 5.73 10.29 5.73 10.29 5.68 10.33 5.62 10.34 5.57 10.33 5.57 10.33 0.61 8.76 0.61 8.76 0.55 8.74 0.5 8.69 0.5 8.62 0.49 8.56 0.53 8.5 0.58 8.47 0.58 8.47 16.26 0.52 16.26 0.52 16.32 0.49 16.39 0.49 16.44 0.53 16.48 0.57 16.51 0.64 16.49 0.7 16.49 0.7 13.58 12.6 13.58 12.6ZM 7.65 12.2C 7.65 12.2 9.26 12.69 9.26 12.69 9.31 12.71 9.34 12.74 9.36 12.79 9.38 12.84 9.37 12.89 9.35 12.93 9.35 12.93 7.74 15.45 7.74 15.45 7.71 15.5 7.65 15.53 7.6 15.53 7.59 15.53 7.57 15.53 7.56 15.52 7.49 15.5 7.44 15.44 7.44 15.37 7.44 15.37 7.44 12.36 7.44 12.36 7.44 12.31 7.46 12.26 7.5 12.23 7.55 12.2 7.6 12.19 7.65 12.2Z" fill="rgb(255,255,255)"/></svg>